# xmcd CD database file
#
# Track frame offsets:
#	150
#	2947
#	8942
#	21147
#	32175
#	43187
#	53452
#	62642
#	71355
#	80035
#	89137
#	93347
#	105785
#	117837
#	130192
#	150539
#	167507
#	182422
#	194965
#	198940
#	214373
#	226300
#	235710
#	247565
#	261198
#	280018
#	292655
#
# Disc length: 4488 seconds
#
# Revision: 4
# Processed by: cddbd v1.5.2PL0 Copyright (c) Steve Scherf et al.
# Submitted via: CDex 1.51
#
DISCID=6411861b
DTITLE=Bill Monroe and the Bluegrass Boys - Live Recordings 1956-1969
DYEAR=1993
DGENRE=Country
TTITLE0=Watermelon Hanging on the Vine
TTITLE1=Roanoke
TTITLE2=Brakeman's Blues
TTITLE3=Close By
TTITLE4=Kentucky Waltz
TTITLE5=Blue Grass Stomp
TTITLE6=Blue Moon of Kentucky
TTITLE7=I'm Working on a Building
TTITLE8=Angels Rock Me to Sleep
TTITLE9=Wheel Hoss
TTITLE10=Watermelon Hanging on the Vine
TTITLE11=Katy Hill
TTITLE12=True Life Blues
TTITLE13=I Live in the Past
TTITLE14=Wayfaring Stranger
TTITLE15=Fire on the Mountain
TTITLE16=Blue Grass Breakdown
TTITLE17=Raw Hide
TTITLE18=Y'all Come
TTITLE19=Cotton-Eyed Joe
TTITLE20=Get Up John
TTITLE21=White House Blues
TTITLE22=Roll in My Sweet Baby's Arms
TTITLE23=Kanas City Railroad Blues
TTITLE24=The Walls of Time
TTITLE25=When He Reached Down His Hand For Me
TTITLE26=Monroe Family Segment
EXTD=YEAR: 1993
EXTT0=
EXTT1=
EXTT2=
EXTT3=
EXTT4=
EXTT5=
EXTT6=
EXTT7=
EXTT8=
EXTT9=
EXTT10=
EXTT11=
EXTT12=
EXTT13=
EXTT14=
EXTT15=
EXTT16=
EXTT17=
EXTT18=
EXTT19=
EXTT20=
EXTT21=
EXTT22=
EXTT23=
EXTT24=
EXTT25=
EXTT26=
PLAYORDER=
